<?xml version="1.0" encoding="UTF-8"?>
<svg id="Layer_1" data-name="Layer 1" xmlns="http://www.w3.org/2000/svg" viewBox="0 0 512 512">
  <defs>
    <style>
      .cls-1 {
        fill: #b9a779;
      }
    </style>
  </defs>
  <path class="cls-1" d="M367.37,231.53c-.83.8-1.68,1.58-2.54,2.33l40.64,60.72-15.45-2.06c-5-.67-9.4-3.63-11.91-8.01l-24.25-42.36c-.96.62-1.94,1.23-2.93,1.8l38.89,70.8-15.46-3.12c-5.06-1.02-9.34-4.4-11.5-9.09l-24.25-52.5c-1.06.44-2.14.85-3.22,1.24l25.42,57.62-11.8-2.38c-5.56-1.12-10.12-5.06-12.04-10.4l-14.82-41.17c-1.12.22-2.26.42-3.39.6l16.4,48.19-8.82-1.78c-6.05-1.22-10.88-5.78-12.46-11.75l-8.44-31.96h-.01c-1.08.3-2.16.62-3.22.97l9.78,39.85-6.32-1.27c-6.56-1.32-11.63-6.54-12.77-13.14l-3.5-20.25-6.04,14.02c-.67,1.56-.51,3.35.43,4.77l18.61,28.08c.26.39.41.83.44,1.3l.36,5.31,11.73,11.74h27.59v12.06l-5.87-5.89h-6.47l6.15,6.17-6.7,6.71v-6.71l-6.16-6.17h-5.93l-6.16,6.17v5.31l-7.16-7.18,6.22-6.07-10.96-10.97-3.94.44c-.62.07-1.25-.08-1.77-.43l-23.02-15.33,16.55,22.38,26.35,35.64h-11.12c-6.3,0-12.03-3.66-14.69-9.38l-9.66-20.81c-.91.42-1.84.82-2.77,1.19l15.51,39.15h-5.35c-7.82,0-14.53-5.6-15.94-13.31l-4.19-22.98c-.91.16-1.83.31-2.76.42l3.5,27.44c.67,5.28-1.28,10.55-5.23,14.11l-4.95,4.46-4.95-4.46c-3.95-3.56-5.9-8.83-5.22-14.11l3.5-27.45c-.93-.11-1.85-.26-2.76-.42l-4.19,22.98c-1.4,7.71-8.11,13.31-15.94,13.31h-5.35l15.51-39.15c-.93-.36-1.86-.76-2.77-1.19l-9.66,20.81c-2.66,5.72-8.39,9.38-14.69,9.38h-11.12l26.35-35.64,16.55-22.37-23.02,15.32c-.52.35-1.15.5-1.77.43l-3.94-.44-10.96,10.97,6.22,6.07-7.16,7.18v-5.31l-6.16-6.17h-5.93l-6.16,6.17v6.71l-6.7-6.71,6.15-6.17h-6.47l-5.87,5.89v-12.06h27.59l11.73-11.74.37-5.31c.03-.46.18-.91.44-1.29l18.61-28.08c.94-1.42,1.1-3.21.43-4.77l-6.05-14.03h-.01l-3.5,20.26c-1.14,6.6-6.21,11.82-12.77,13.14l-6.31,1.27,9.78-39.86c-1.06-.35-2.15-.67-3.23-.97l-8.44,31.97c-1.58,5.98-6.41,10.54-12.47,11.76l-8.82,1.78,16.41-48.2c-1.13-.17-2.27-.37-3.39-.59l-14.82,41.18c-1.92,5.34-6.49,9.29-12.05,10.4l-11.8,2.38,25.4-57.64c-1.08-.38-2.15-.79-3.21-1.23l-24.25,52.5c-2.17,4.69-6.44,8.07-11.51,9.09l-15.47,3.12,38.91-70.8c-.99-.57-1.97-1.18-2.93-1.81l-24.26,42.37c-2.51,4.38-6.91,7.34-11.91,8.01l-15.45,2.06,40.64-60.73c-.86-.75-1.72-1.54-2.55-2.33l-22.88,32.94c-2.81,4.05-7.32,6.6-12.23,6.92l-15.19,1,41.05-51.07c-.71-.9-1.4-1.83-2.08-2.76l-22.78,27.35c-3.08,3.7-7.64,5.83-12.44,5.83h-15.11l72.75-75.91c3.92-4.09,9.33-6.4,14.99-6.4h16.23c4.34,0,7.86,3.52,7.86,7.87v9.17c0,7.39,2.47,14.21,6.61,19.67,5.93,7.83,15.32,12.87,25.89,12.87,2.35,0,4.65-.25,6.86-.73,1.76-.38,3.19-1.68,3.67-3.42l5.76-20.88c.08-.37.09-.76.03-1.15-.39-2.53-3.81-4.11-7.66-3.52-3.07.46-5.47,2.18-6.11,4.14,0,0-1.71-3.32-1.75-5.8-.05-3.2,1.32-4.97,4.41-6.53l5.37-2.52c3.38-3.1,8.89-5.12,15.13-5.12,9.6,0,17.51,4.78,18.52,10.95l.1.75,3.88,29.3c.28,2.09,1.89,3.76,3.97,4.1,1.7.28,3.45.42,5.24.42,10.57,0,19.96-5.04,25.89-12.87,4.14-5.47,6.61-12.28,6.61-19.67v-9.17c0-4.34,3.52-7.87,7.86-7.87h16.23c5.66,0,11.07,2.31,14.99,6.4l72.75,75.91h-15.1c-4.8,0-9.36-2.14-12.44-5.83l-22.79-27.35c-.66.93-1.35,1.86-2.07,2.76l41.04,51.07-15.2-1c-4.92-.32-9.42-2.87-12.23-6.92l-22.88-32.94Z"/>
  <polygon class="cls-1" points="246.39 155.65 256 148.64 265.62 155.65 261.95 144.32 271.56 137.31 259.68 137.31 256 125.98 252.33 137.31 240.44 137.31 250.06 144.32 246.39 155.65"/>
  <polygon class="cls-1" points="294.44 155.93 300.6 166.12 301.59 154.25 313.16 151.51 302.21 146.91 303.2 135.03 295.44 144.06 284.47 139.45 290.63 149.64 282.87 158.66 294.44 155.93"/>
  <polygon class="cls-1" points="210.42 154.26 211.3 166.14 217.55 156.01 229.1 158.86 221.42 149.76 227.68 139.63 216.68 144.13 209 135.03 209.87 146.91 198.87 151.42 210.42 154.26"/>
</svg>